<?xml version="1.0" encoding="utf-8"?>
<!-- Generator: Fusion 360, Shaper Origin Export Add-In, Version 1.7.0  -->
<svg xmlns="http://www.w3.org/2000/svg" xmlns:xlink="http://www.w3.org/1999/xlink" xmlns:shaper="http://www.shapertools.com/namespaces/shaper" shaper:fusionaddin="version:1.7.0" width="15cm" height="6cm" version="1.1" x="0cm" y="0cm" viewBox="0 0 15 6" enable-background="new 0 0 15 6" xml:space="preserve"><path d="M-7.5,2.55 L-7.5,-2.55 -7.5,-3.05 -2.5,-3.05 2.5,-3.05 7.5,-3.05 7.5,-2.55 7.5,2.55 5,2.55 5,2.95 2.5,2.95 2.5,2.55 -2.5,2.55 -2.5,2.95 -5,2.95 -5,2.55 -7.5,2.55z" transform="matrix(1,0,0,-1,7.5,2.95)" fill="rgb(0,0,0)" shaper:cutDepth="18cm" stroke-linecap="round" stroke-linejoin="round" /><path d="M-2.5,-2.55 L-2.5,-2.95 -5,-2.95 -5,-2.55 -7.5,-2.55 -7.5,2.55 -5,2.55 -5,2.95 -2.5,2.95 -2.5,2.55 2.5,2.55 2.5,2.95 5,2.95 5,2.55 7.5,2.55 7.5,-2.55 5,-2.55 5,-2.95 2.5,-2.95 2.5,-2.55 -2.5,-2.55z" transform="matrix(1,0,0,-1,7.5,2.95)" fill="rgb(125,125,125)" fill-rule="nonzero" shaper:cutDepth="4.6cm" stroke-linecap="round" stroke-linejoin="round" /></svg>