<?xml version="1.0" encoding="utf-8"?>
<!-- Generator: Fusion 360, Shaper Origin Export Add-In, Version 1.7.0  -->
<svg xmlns="http://www.w3.org/2000/svg" xmlns:xlink="http://www.w3.org/1999/xlink" xmlns:shaper="http://www.shapertools.com/namespaces/shaper" shaper:fusionaddin="version:1.7.0" width="19.4888765cm" height="15cm" version="1.1" x="0cm" y="0cm" viewBox="0 0 19.4888765 15" enable-background="new 0 0 19.4888765 15" xml:space="preserve"><path d="M9.7444383,-2.5 L9.7444383,2.5 A5,5 0 0,1 4.7444383,7.5 L-4.7555617,7.5 -4.7555617,7.5 -4.8440324,7.4988258 -4.9324754,7.4953038 -5.020863,7.4894348 -5.1091675,7.4812209 -5.1973613,7.4706646 -5.2854168,7.4577691 -5.3733064,7.4425386 -5.4610026,7.4249778 -5.5484778,7.4050921 -5.6357049,7.3828879 -5.7226563,7.358372 -5.8093049,7.3315522 -5.8956236,7.3024368 -5.9815853,7.2710349 -6.0671632,7.2373565 -6.1523304,7.201412 -6.2370602,7.1632126 -6.3213262,7.1227704 -6.4051019,7.0800981 -6.4883612,7.0352089 -6.5710779,6.9881169 -6.6532261,6.9388369 -6.7347802,6.8873843 -6.8157145,6.8337752 -6.8960039,6.7780264 -6.975623,6.7201554 -7.054547,6.6601802 -7.1327512,6.5981197 -7.210211,6.5339932 -7.2869023,6.467821 -7.3628011,6.3996236 -7.4378834,6.3294224 -7.512126,6.2572395 -7.5855054,6.1830973 -7.6579987,6.1070192 -7.7295833,6.029029 -7.8002367,5.949151 -7.8699368,5.8674103 -7.9386617,5.7838325 -8.00639,5.6984437 -8.0731004,5.6112707 -8.1387721,5.5223407 -8.2033845,5.4316817 -8.2669174,5.339322 -8.3293508,5.2452905 -8.3906652,5.1496166 -8.4508415,5.0523304 -8.5098607,4.9534623 -8.5677045,4.8530432 -8.6243546,4.7511045 -8.6797934,4.6476783 -8.7340035,4.5427968 -8.7869679,4.436493 -8.83867,4.3288001 -8.8890937,4.2197518 -8.9382232,4.1093822 -8.986043,3.997726 -9.0325383,3.8848181 -9.0776944,3.7706938 -9.1214972,3.6553889 -9.163933,3.5389394 -9.2049885,3.4213819 -9.2446508,3.3027531 -9.2829076,3.1830902 -9.3197469,3.0624306 -9.3551571,2.9408122 -9.3891271,2.818273 -9.4216463,2.6948514 -9.4527045,2.570586 -9.482292,2.4455157 -9.5103996,2.3196798 -9.5370183,2.1931175 -9.56214,2.0658685 -9.5857567,1.9379727 -9.607861,1.8094701 -9.628446,1.680401 -9.6475053,1.5508057 -9.6650329,1.4207248 -9.6810233,1.2901991 -9.6954715,1.1592694 -9.708373,1.0279768 -9.7197237,0.8963622 -9.7295202,0.7644671 -9.7377592,0.6323325 -9.7444383,0.5 -8.2555617,0.5 -8.2555617,-0.5 -9.7444383,-0.5 -9.7444383,-0.5 -9.7377592,-0.6323325 -9.7295202,-0.7644671 -9.7197237,-0.8963622 -9.708373,-1.0279768 -9.6954715,-1.1592694 -9.6810233,-1.2901991 -9.6650329,-1.4207248 -9.6475053,-1.5508057 -9.628446,-1.680401 -9.607861,-1.8094701 -9.5857567,-1.9379727 -9.56214,-2.0658685 -9.5370183,-2.1931175 -9.5103996,-2.3196798 -9.482292,-2.4455157 -9.4527045,-2.570586 -9.4216463,-2.6948514 -9.3891271,-2.818273 -9.3551571,-2.9408122 -9.3197469,-3.0624306 -9.2829076,-3.1830902 -9.2446508,-3.3027531 -9.2049885,-3.4213819 -9.163933,-3.5389394 -9.1214972,-3.6553889 -9.0776944,-3.7706938 -9.0325383,-3.8848181 -8.986043,-3.997726 -8.9382232,-4.1093822 -8.8890937,-4.2197518 -8.83867,-4.3288001 -8.7869679,-4.436493 -8.7340035,-4.5427968 -8.6797934,-4.6476783 -8.6243546,-4.7511045 -8.5677045,-4.8530432 -8.5098607,-4.9534623 -8.4508415,-5.0523304 -8.3906652,-5.1496166 -8.3293508,-5.2452905 -8.2669174,-5.339322 -8.2033845,-5.4316817 -8.1387721,-5.5223407 -8.0731004,-5.6112707 -8.00639,-5.6984437 -7.9386617,-5.7838325 -7.8699368,-5.8674103 -7.8002367,-5.949151 -7.7295833,-6.029029 -7.6579987,-6.1070192 -7.5855054,-6.1830973 -7.512126,-6.2572395 -7.4378834,-6.3294224 -7.3628011,-6.3996236 -7.2869023,-6.467821 -7.210211,-6.5339932 -7.1327512,-6.5981197 -7.054547,-6.6601802 -6.975623,-6.7201554 -6.8960039,-6.7780264 -6.8157145,-6.8337752 -6.7347802,-6.8873843 -6.6532261,-6.9388369 -6.5710779,-6.9881169 -6.4883612,-7.0352089 -6.4051019,-7.0800981 -6.3213262,-7.1227704 -6.2370602,-7.1632126 -6.1523304,-7.201412 -6.0671632,-7.2373565 -5.9815853,-7.2710349 -5.8956236,-7.3024368 -5.8093049,-7.3315522 -5.7226563,-7.358372 -5.6357049,-7.3828879 -5.5484778,-7.4050921 -5.4610026,-7.4249778 -5.3733064,-7.4425386 -5.2854168,-7.4577691 -5.1973613,-7.4706646 -5.1091675,-7.4812209 -5.020863,-7.4894348 -4.9324754,-7.4953038 -4.8440324,-7.4988258 -4.7555617,-7.5 4.7444383,-7.5 A5,5 270 0,1 9.7444383,-2.5z" transform="matrix(1,0,0,-1,9.7444383,7.5)" fill="rgb(0,0,0)" shaper:cutDepth="5.6cm" stroke-linecap="round" stroke-linejoin="round" /><path d="M-1.0805617,-4.5 L-0.2811764,-4.5 A1.7,1.7 206.1789687 1,1 -0.2811764,-3 L-1.0805617,-3 -1.0805617,-4.5z" transform="matrix(1,0,0,-1,9.7444383,7.5)" fill="rgb(108,108,108)" fill-rule="nonzero" shaper:cutDepth="0.5cm" stroke-linecap="round" stroke-linejoin="round" /><path d="M1.4444384,3.75 a1,1 0 1,1 2,0 a1,1 0 1,1 -2,0z" transform="matrix(1,0,0,-1,9.7444383,7.5)" fill="rgb(255,255,255)" stroke="rgb(0,0,0)" stroke-width="0.0010cm" stroke-linecap="round" stroke-linejoin="round" shaper:cutDepth="5.6cm" /><path d="M-3.3555617,-5 L-3.7555617,-5 -3.7555617,-2.5 -3.3555617,-2.5 -3.3555617,-5z" transform="matrix(1,0,0,-1,9.7444383,7.5)" fill="rgb(255,255,255)" stroke="rgb(0,0,0)" stroke-width="0.0010cm" stroke-linecap="round" stroke-linejoin="round" shaper:cutDepth="5.6cm" /><path d="M-3.3555617,2.5 L-3.7555617,2.5 -3.7555617,5 -3.3555617,5 -3.3555617,2.5z" transform="matrix(1,0,0,-1,9.7444383,7.5)" fill="rgb(255,255,255)" stroke="rgb(0,0,0)" stroke-width="0.0010cm" stroke-linecap="round" stroke-linejoin="round" shaper:cutDepth="5.6cm" /><path d="M-8.0555617,2.5 a0.3,0.3 0 1,1 0.6,0 a0.3,0.3 0 1,1 -0.6,0z" transform="matrix(1,0,0,-1,9.7444383,7.5)" fill="rgb(255,255,255)" stroke="rgb(0,0,0)" stroke-width="0.0010cm" stroke-linecap="round" stroke-linejoin="round" shaper:cutDepth="5.6cm" /><path d="M-5.2805617,-4.5 L-4.2805617,-4.5 -4.2805617,-3 -5.2805617,-3 -5.2805617,-4.5z" transform="matrix(1,0,0,-1,9.7444383,7.5)" fill="rgb(255,255,255)" stroke="rgb(0,0,0)" stroke-width="0.0010cm" stroke-linecap="round" stroke-linejoin="round" shaper:cutDepth="5.6cm" /></svg>